HIERARCHY
ROOT Hips
{
	OFFSET	0.00	0.00	0.00
	CHANNELS 6 Xposition Yposition Zposition Zrotation Xrotation Yrotation
	JOINT LeftUpperLeg
	{
		OFFSET	 0.100000	-0.066564	-0.000554
		CHANNELS 3 Zrotation Xrotation Yrotation
		JOINT LeftLowerLeg
		{
			OFFSET	 0.002447	-0.463436	-0.005172
			CHANNELS 3 Zrotation Xrotation Yrotation
			JOINT LeftFoot
			{
				OFFSET	-0.002447	-0.420480	-0.020576
				CHANNELS 3 Zrotation Xrotation Yrotation
				JOINT LeftToes
				{
					OFFSET	 0.003734	-0.104922	 0.126407
					CHANNELS 3 Zrotation Xrotation Yrotation
					End Site
					{
						OFFSET	 0.000000	 0.000000	 0.059955
					}
				}
			}
		}
	}
	JOINT RightUpperLeg
	{
		OFFSET	-0.100000	-0.066564	-0.000554
		CHANNELS 3 Zrotation Xrotation Yrotation
		JOINT RightLowerLeg
		{
			OFFSET	-0.002447	-0.463436	-0.005146
			CHANNELS 3 Zrotation Xrotation Yrotation
			JOINT RightFoot
			{
				OFFSET	 0.002447	-0.420479	-0.020602
				CHANNELS 3 Zrotation Xrotation Yrotation
				JOINT RightToes
				{
					OFFSET	-0.003734	-0.104922	 0.126407
					CHANNELS 3 Zrotation Xrotation Yrotation
					End Site
					{
						OFFSET	-0.000000	 0.000000	 0.059955
					}
				}
			}
		}
	}
	JOINT Spine
	{
		OFFSET	 0.000000	 0.099235	-0.012273
		CHANNELS 3 Zrotation Xrotation Yrotation
		JOINT Chest
		{
			OFFSET	-0.000001	 0.116455	-0.014223
			CHANNELS 3 Zrotation Xrotation Yrotation
			JOINT UpperChest
			{
				OFFSET	 0.000001	 0.133602	-0.016265
				CHANNELS 3 Zrotation Xrotation Yrotation
				JOINT LeftShoulder
				{
					OFFSET	 0.061058	 0.091105	 0.007056
					CHANNELS 3 Zrotation Xrotation Yrotation
					JOINT LeftUpperArm
					{
						OFFSET	 0.133942	-0.002659	-0.026009
						CHANNELS 3 Zrotation Xrotation Yrotation
						JOINT LeftLowerArm
						{
							OFFSET	 0.274047	 0.000000	 0.000000
							CHANNELS 3 Zrotation Xrotation Yrotation
							JOINT LeftHand
							{
								OFFSET	 0.276145	 0.000000	 0.000000
								CHANNELS 3 Zrotation Xrotation Yrotation
								End Site
								{
									OFFSET	 0.165687	 0.000000	 0.000000
								}
							}
						}
					}
				}
				JOINT Neck
				{
					OFFSET	 0.000000	 0.150325	 0.007929
					CHANNELS 3 Zrotation Xrotation Yrotation
					JOINT Head
					{
						OFFSET	 0.000000	 0.103218	 0.031424
						CHANNELS 3 Zrotation Xrotation Yrotation
						End Site
						{
							OFFSET	 0.000000	 0.061931	 0.018855
						}
					}
				}
				JOINT RightShoulder
				{
					OFFSET	-0.061057	 0.091105	 0.007056
					CHANNELS 3 Zrotation Xrotation Yrotation
					JOINT RightUpperArm
					{
						OFFSET	-0.133943	-0.002660	-0.026009
						CHANNELS 3 Zrotation Xrotation Yrotation
						JOINT RightLowerArm
						{
							OFFSET	-0.274047	 0.000000	 0.000000
							CHANNELS 3 Zrotation Xrotation Yrotation
							JOINT RightHand
							{
								OFFSET	-0.276145	 0.000000	 0.000000
								CHANNELS 3 Zrotation Xrotation Yrotation
								End Site
								{
									OFFSET	-0.165687	 0.000000	 0.000000
								}
							}
						}
					}
				}
			}
		}
	}
}
MOTION
Frames:    7
Frame Time: 0.03333334
 0.121360	 1.035680	-0.679850	-10.361200	 6.497370	-3.411267	 6.995667	-9.079162	 12.461810	 0.614278	 27.870070	-0.157479	 5.564932	-22.639450	 16.132730	-0.000120	-1.231638	 0.177072	-8.421355	-3.324893	-34.478200	 0.002000	 0.089108	-0.000189	 5.999790	 21.871100	-4.267667	-0.000231	 0.376789	-0.000288	-0.886152	 0.705454	-1.642596	-0.000000	 0.000000	 0.000000	-1.754384	 1.437074	-3.279072	-0.763799	 3.341871	 15.215940	-69.008490	-11.115500	-16.856220	 4.998428	-1.076615	-5.991679	 46.296810	 45.018780	-29.057770	 11.720950	-0.932888	 8.938321	 11.655790	-0.856981	 8.430155	-2.008888	 1.812367	-12.869020	 84.053150	-1.531770	 3.636657	 0.289863	 4.280103	 17.844780	-17.482660	-1.540951	 0.951638
 0.122360	 1.034970	-0.678400	-10.236600	 6.576324	-3.439893	 6.777600	-9.165977	 12.374360	 0.641493	 28.041370	-0.163979	 5.735694	-22.700570	 16.357430	 0.000169	-1.337916	 0.191154	-8.552498	-3.301434	-34.247410	 0.001909	 0.075076	 0.000340	 5.946697	 21.401910	-4.513434	 0.000106	 0.355543	 0.000594	-0.852356	 0.589487	-1.452580	-0.000000	 0.000000	 0.000000	-1.693267	 1.202201	-2.899671	-0.971359	 4.154315	 16.052640	-71.217510	-11.166960	-13.219940	 4.613966	 1.544876	-6.153834	 44.992830	 47.364480	-27.010290	 11.691800	-0.912732	 8.300039	 11.612920	-0.763760	 7.880525	-2.105251	 2.034610	-13.234770	 84.224320	-1.711021	 3.808342	 0.493673	 4.596292	 18.299930	-17.236810	-1.460570	 1.139487
 0.122960	 1.034220	-0.677010	-10.127340	 6.514345	-3.229903	 6.578814	-9.184726	 12.179980	 0.682028	 28.268840	-0.175024	 5.912735	-22.814440	 16.500260	 0.000454	-1.317111	 0.203315	-8.654158	-3.075500	-34.285720	 0.001900	 0.074922	 0.000887	 5.837030	 20.740820	-4.696051	 0.000013	 0.329220	-0.000567	-0.879721	 0.544641	-1.131617	-0.000000	 0.000000	 0.000000	-1.749945	 1.108292	-2.258799	-0.780678	 4.610496	 17.010560	-73.737020	-9.915981	-7.197431	 4.006640	 4.150974	-7.085248	 45.371610	 46.727340	-26.614760	 11.707600	-0.801746	 7.433040	 11.750890	-0.837992	 6.786232	-2.225247	 2.232664	-13.405660	 84.213810	-1.910310	 3.569768	 2.164239	 4.882765	 19.254460	-18.036600	-1.022927	 1.587430
 0.122790	 1.033560	-0.677240	-10.090100	 6.697377	-2.689198	 6.526103	-9.619008	 11.949740	 0.748274	 28.547300	-0.192120	 6.154850	-22.949900	 16.377190	 0.000287	-1.143850	 0.221477	-8.627860	-3.096209	-34.647760	 0.001499	 0.074177	-0.000756	 5.842176	 20.004090	-5.048478	 0.000517	 0.305410	-0.001036	-0.948263	 0.477223	-0.752464	-0.000000	 0.000000	 0.000000	-1.892239	 0.967720	-1.501044	-0.033824	 4.276966	 17.499730	-75.822480	-6.903075	-1.237601	 3.355459	 5.224413	-8.529399	 46.755860	 44.486380	-28.151630	 11.899910	-1.008369	 6.197860	 12.025230	-1.024333	 5.428381	-2.376493	 1.999065	-13.715470	 84.511620	-1.757434	 3.661170	 2.917893	 5.223532	 19.742660	-18.146960	-1.438161	 1.511631
 0.122790	 1.033560	-0.677240	-10.090100	 6.697377	-2.689198	 6.526103	-9.619008	 11.949740	 0.748274	 28.547300	-0.192120	 6.154850	-22.949900	 16.377190	 0.000287	-1.143850	 0.221477	-8.627860	-3.096209	-34.647760	 0.001499	 0.074177	-0.000756	 5.842176	 20.004090	-5.048478	 0.000517	 0.305410	-0.001036	-0.948263	 0.477223	-0.752464	-0.000000	 0.000000	 0.000000	-1.892239	 0.967720	-1.501044	-0.033824	 4.276966	 17.499730	-75.822480	-6.903075	-1.237601	 3.355459	 5.224413	-8.529399	 46.755860	 44.486380	-28.151630	 11.899910	-1.008369	 6.197860	 12.025230	-1.024333	 5.428381	-2.376493	 1.999065	-13.715470	 84.511620	-1.757434	 3.661170	 2.917893	 5.223532	 19.742660	-18.146960	-1.438161	 1.511631
 0.122570	 1.032850	-0.676990	-10.144900	 6.731117	-1.778237	 6.541793	-9.968362	 11.527880	 0.829225	 28.893110	-0.216119	 6.105606	-23.171590	 16.064290	-0.000429	-1.059683	 0.222624	-8.545973	-2.868945	-35.267350	 0.002679	 0.089093	-0.000084	 5.669806	 19.290040	-5.285906	 0.000161	 0.279627	-0.000378	-0.919938	 0.303302	-0.415589	-0.000000	 0.000000	 0.000000	-1.841360	 0.612766	-0.828392	 0.763982	 3.631142	 17.715390	-77.337540	-3.559860	 4.340230	 2.095301	 5.576518	-10.717960	 47.074480	 43.467680	-28.922660	 12.188140	-1.073168	 4.564573	 12.118270	-0.869287	 3.831858	-2.288949	 2.190733	-14.079700	 84.857600	-1.844499	 3.071086	 3.564073	 5.368015	 21.095080	-17.558310	-1.831309	 0.605255
 0.123030	 1.032210	-0.677610	-10.101960	 6.554316	-0.447890	 6.360016	-10.223050	 10.715490	 0.891832	 29.178190	-0.234541	 6.173790	-23.305260	 15.596100	 0.000903	-0.891322	 0.223522	-8.629307	-2.378415	-35.908020	 0.002176	 0.089590	 0.000104	 5.322902	 18.555870	-5.523745	 0.000812	 0.244362	 0.000101	-0.813982	 0.287659	-0.272547	-0.000000	 0.000000	 0.000000	-1.628635	 0.580471	-0.541224	 1.139821	 3.224237	 17.690420	-78.552000	-2.044984	 9.025487	 0.658396	 5.814642	-13.324250	 46.891710	 42.262040	-29.909470	 12.177000	-0.734108	 2.666461	 11.960850	-0.767286	 2.378040	-2.212751	 2.627570	-14.454220	 84.973550	-1.915376	 2.832507	 4.267882	 5.353688	 22.021930	-16.818950	-2.313494	 0.069701
